<svg width="70" height="70" viewBox="0 0 70 70" fill="none" xmlns="http://www.w3.org/2000/svg">
<g clip-path="url(#clip0_3_72)">
<path d="M66.1111 8.75H62.2222V4.375C62.2222 1.96875 60.4722 0 58.3333 0H3.88889C1.75 0 0 1.96875 0 4.375V56.875C0 59.2812 1.75 61.25 3.88889 61.25H7.77778V65.625C7.77778 68.0312 9.52778 70 11.6667 70H66.1111C68.25 70 70 68.0312 70 65.625V13.125C70 10.7188 68.25 8.75 66.1111 8.75ZM7.77778 13.125V56.875H3.89667C3.89278 56.8706 3.89278 56.8706 3.88889 56.8662V4.38375C3.89278 4.37937 3.89278 4.37937 3.89667 4.375H58.3256C58.3294 4.37937 58.3294 4.37937 58.3333 4.38375V8.75H11.6667C9.52778 8.75 7.77778 10.7188 7.77778 13.125ZM66.1111 65.6162C66.1072 65.6206 66.1072 65.6206 66.1033 65.625H11.6744C11.6706 65.6206 11.6706 65.6206 11.6667 65.6162V13.1337C11.6706 13.1294 11.6706 13.1294 11.6744 13.125H66.1033C66.1072 13.1294 66.1072 13.1294 66.1111 13.1337V65.6162Z" fill="black"/>
<path d="M58.3334 24.0625C58.3334 27.685 55.72 30.625 52.5 30.625C49.28 30.625 46.6667 27.685 46.6667 24.0625C46.6667 20.44 49.28 17.5 52.5 17.5C55.72 17.5 58.3334 20.44 58.3334 24.0625Z" fill="black"/>
<path d="M62.2222 61.25H15.5555V52.5L29.1667 26.25L44.7222 48.125H48.6111L62.2222 35V61.25Z" fill="black"/>
</g>
<defs>
<clipPath id="clip0_3_72">
<rect width="70" height="70" fill="white"/>
</clipPath>
</defs>
</svg>
