<svg width="24" height="24" viewBox="0 0 24 24" fill="none" xmlns="http://www.w3.org/2000/svg">
<g clip-path="url(#clip0_59_15)">
<path d="M18 10.8H16.8V7.20002C16.8 4.56002 14.64 2.40002 12 2.40002C9.36005 2.40002 7.20005 4.56002 7.20005 7.20002V10.8H6.00005C5.40005 10.8 4.80005 11.4 4.80005 12V20.4C4.80005 21 5.40005 21.6 6.00005 21.6H18C18.6 21.6 19.2 21 19.2 20.4V12C19.2 11.4 18.6 10.8 18 10.8ZM13.2 19.2H10.8L11.28 16.56C10.68 16.32 10.2 15.6 10.2 15C10.2 14.04 11.04 13.2 12 13.2C12.96 13.2 13.8 14.04 13.8 15C13.8 15.72 13.44 16.32 12.72 16.56L13.2 19.2ZM14.4 10.8H9.60005V7.20002C9.60005 5.88002 10.68 4.80002 12 4.80002C13.32 4.80002 14.4 5.88002 14.4 7.20002V10.8Z" fill="white"/>
</g>
<defs>
<clipPath id="clip0_59_15">
<rect width="24" height="24" fill="white"/>
</clipPath>
</defs>
</svg>
